#!OML:ASF Y:\EmotionMaleHayes\Project 1\Capture day 1\Session 1\Male1.ASF
:FULLY-SPECIFIED
:DEGREES
2705
root -22.0989 16.6781 17.7786 530.191 300.734 -526.631
lowerback 14.7111 4.74083 -0.965589
upperback 7.54033 5.45682 -1.51723
thorax -0.190194 2.46172 -1.82941
lowerneck -21.6383 2.20255 4.80707
upperneck 33.9837 0.0812775 0.500609
head 15.6767 0.410064 -0.698625
rclavicle 1.59028e-014 -7.31528e-014
rhumerus -34.1565 32.6124 -94.0433
rradius 95.3147
rwrist -13.5315
rhand -13.9221 -27.8198
rfingers 7.12502
rthumb 12.2042 -57.4437
lclavicle 1.59028e-014 -7.31528e-014
lhumerus -47.5106 14.5512 54.8556
lradius 17.754
lwrist -31.9933
lhand -9.00226 -26.4752
lfingers 7.12502
lthumb 16.9443 2.80565
rfemur 6.25311 11.2329 26.9371
rtibia 15.3567
rfoot -23.5567 3.77951
rtoes -0.866279
lfemur -19.294 -9.20969 9.30339
ltibia 11.0193
lfoot 4.46444 5.93667
ltoes 0.0751946
2706
root -22.2576 16.6373 17.806 530.2 301.661 -526.591
lowerback 14.5405 4.79268 -1.02022
upperback 7.45378 5.52732 -1.53918
thorax -0.193094 2.49813 -1.82257
lowerneck -21.3193 2.38043 5.16629
upperneck 33.7317 0.309006 0.297766
head 15.4921 0.516219 -0.802934
rclavicle 4.01545e-014 -4.77083e-015
rhumerus -34.1698 32.4946 -94.1968
rradius 95.4236
rwrist -13.5642
rhand -14.3711 -28.1359
rfingers 7.12502
rthumb 11.7712 -57.7851
lclavicle 4.01545e-014 -4.77083e-015
lhumerus -48.2017 15.6978 53.1874
lradius 17.2589
lwrist -33.2452
lhand -8.73755 -26.1559
lfingers 7.12502
lthumb 17.1991 3.10293
rfemur 7.00909 11.3798 26.6808
rtibia 14.7818
rfoot -24.0978 4.50211
rtoes -3.22778
lfemur -19.4426 -8.62588 9.41482
ltibia 12.5445
lfoot 3.13403 4.91721
ltoes -4.68906
2707
root -22.4141 16.5941 17.8329 529.737 302.729 -526.217
lowerback 14.6195 4.8432 -0.921594
upperback 7.37206 5.60388 -1.49539
thorax -0.31413 2.53732 -1.85255
lowerneck -21.0891 2.45932 5.21667
upperneck 33.6148 0.44032 0.236415
head 15.3878 0.562153 -0.813651
rclavicle 1.55052e-014 3.49861e-014
rhumerus -34.2574 32.0554 -94.502
rradius 95.3061
rwrist -13.2463
rhand -14.6742 -27.6612
rfingers 7.12502
rthumb 11.479 -57.3269
lclavicle 1.55052e-014 3.49861e-014
lhumerus -49.0162 17.009 51.2884
lradius 16.7611
lwrist -34.9787
lhand -8.84142 -26.047
lfingers 7.12502
lthumb 17.0991 3.22057
rfemur 7.79748 11.6426 26.7028
rtibia 14.5673
rfoot -24.6768 5.29542
rtoes -3.35474
lfemur -19.3254 -7.86106 9.71531
ltibia 14.2545
lfoot 2.12544 3.79584
ltoes -8.70623
2708
root -22.5726 16.5532 17.8632 530.099 303.368 -526.503
lowerback 14.4252 4.79344 -1.21704
upperback 7.25734 5.5152 -1.53151
thorax -0.359969 2.4902 -1.70424
lowerneck -21.051 2.4269 4.88941
upperneck 33.6361 0.406872 0.505562
head 15.3845 0.539318 -0.651532
rclavicle -5.00937e-014 4.92986e-014
rhumerus -34.3736 31.5 -94.6675
rradius 95.2578
rwrist -12.8209
rhand -14.8812 -27.1718
rfingers 7.12502
rthumb 11.2793 -56.8485
lclavicle -5.00937e-014 4.92986e-014
lhumerus -49.9471 19.1075 48.7433
lradius 16.0986
lwrist -37.7787
lhand -9.30595 -26.023
lfingers 7.12502
lthumb 16.6519 3.2827
rfemur 8.28647 11.2723 25.9038
rtibia 14.3444
rfoot -25.1909 6.29815
rtoes -3.72081
lfemur -19.5871 -7.37558 9.30895
ltibia 16.1041
lfoot 1.08742 3.66091
ltoes -10.9943
2709
root -22.7293 16.5112 17.8969 529.794 304.189 -526.123
lowerback 14.3642 4.76487 -1.1382
upperback 7.17896 5.49775 -1.42167
thorax -0.414775 2.48416 -1.63014
lowerneck -20.976 2.42155 4.81468
upperneck 33.7402 0.491268 0.292235
head 15.4167 0.528148 -0.715263
rclavicle 3.49861e-014 1.27222e-014
rhumerus -34.5409 31.0328 -94.7537
rradius 95.1525
rwrist -12.3438
rhand -15.2671 -27.1856
rfingers 7.12502
rthumb 10.9072 -56.8823
lclavicle 3.49861e-014 1.27222e-014
lhumerus -50.8323 21.1224 46.3471
lradius 15.4557
lwrist -40.3908
lhand -9.65119 -25.8044
lfingers 7.12502
lthumb 16.3195 3.52896
rfemur 8.81178 11.2856 25.7343
rtibia 14.0251
rfoot -25.5747 6.85595
rtoes -6.17243
lfemur -19.5823 -6.58208 9.33575
ltibia 17.9143
lfoot -0.745211 3.48946
ltoes -13.712
2710
root -22.8847 16.4734 17.9262 529.999 304.699 -526.251
lowerback 14.2051 4.64725 -1.43429
upperback 7.09565 5.31969 -1.39237
thorax -0.452522 2.39113 -1.40248
lowerneck -20.8691 2.58313 4.91881
upperneck 33.8373 0.778551 0.0131141
head 15.4478 0.614654 -0.79935
rclavicle -1.11319e-014 -8.11041e-014
rhumerus -34.6292 30.5933 -94.9047
rradius 94.7718
rwrist -11.803
rhand -15.6443 -27.2233
rfingers 7.12502
rthumb 10.5433 -56.9389
lclavicle -1.11319e-014 -8.11041e-014
lhumerus -51.4874 22.0978 44.9334
lradius 15.0683
lwrist -41.6447
lhand -10.2385 -25.5878
lfingers 7.12502
lthumb 15.754 3.791
rfemur 9.21599 10.9544 25.0297
rtibia 13.5379
rfoot -25.632 7.75421
rtoes -7.48364
lfemur -19.7217 -6.06849 8.90304
ltibia 19.4459
lfoot -2.96031 3.40917
ltoes -9.48773
2711
root -23.0337 16.4366 17.9592 529.34 305.496 -525.575
lowerback 14.3349 4.6128 -1.17114
upperback 7.06537 5.30129 -1.32404
thorax -0.535937 2.38556 -1.48544
lowerneck -20.953 2.64629 4.98145
upperneck 34.0443 0.831017 -0.0396483
head 15.5698 0.63149 -0.825494
rclavicle -1.03368e-014 -2.06736e-014
rhumerus -34.5236 29.9044 -95.0736
rradius 94.1292
rwrist -11.4518
rhand -16.034 -27.0468
rfingers 7.12502
rthumb 10.1673 -56.7811
lclavicle -1.03368e-014 -2.06736e-014
lhumerus -52.0397 23.5937 42.8628
lradius 14.657
lwrist -43.9222
lhand -10.8436 -25.5843
lfingers 7.12502
lthumb 15.1712 3.83957
rfemur 9.75785 11.1613 25.1873
rtibia 13.25
rfoot -25.6006 8.445
rtoes -7.11501
lfemur -19.5741 -5.38094 9.20803
ltibia 20.698
lfoot -3.17903 2.94455
ltoes -14.02
2712
root -23.1809 16.4067 18.0023 529.848 305.674 -525.723
lowerback 14.0359 4.40725 -1.36361
upperback 6.93776 5.02993 -1.41474
thorax -0.5251 2.25505 -1.41757
lowerneck -20.8591 2.67393 4.79902
upperneck 33.9787 0.843629 0.218422
head 15.5141 0.645388 -0.682956
rclavicle 7.15625e-014 -2.70347e-014
rhumerus -34.5564 29.2124 -95.3076
rradius 93.3247
rwrist -11.1192
rhand -16.6696 -26.6557
rfingers 7.12502
rthumb 9.55412 -56.4191
lclavicle 7.15625e-014 -2.70347e-014
lhumerus -52.7919 25.7542 40.1959
lradius 14.25
lwrist -47.0076
lhand -10.3311 -25.3261
lfingers 7.12502
lthumb 15.6648 4.05975
rfemur 9.89513 10.6768 24.3466
rtibia 12.6803
rfoot -25.4759 9.30275
rtoes -7.17792
lfemur -20.362 -4.88177 8.6024
ltibia 22.285
lfoot -3.53536 2.61506
ltoes -16.3448
2713
root -23.3152 16.3847 18.0339 529.032 306.292 -524.525
lowerback 13.9822 4.31633 -0.858258
upperback 6.88412 4.98622 -1.22656
thorax -0.527409 2.24584 -1.49429
lowerneck -20.8429 2.62329 4.46556
upperneck 34.0651 0.821818 0.373426
head 15.5453 0.609886 -0.565587
rclavicle -5.00937e-014 -7.15625e-014
rhumerus -34.6589 28.1477 -95.4689
rradius 92.4477
rwrist -10.4632
rhand -17.3034 -26.3688
rfingers 7.12502
rthumb 8.94254 -56.1593
lclavicle -5.00937e-014 -7.15625e-014
lhumerus -52.9989 27.0014 38.7946
lradius 14.1785
lwrist -48.8504
lhand -9.60805 -24.8211
lfingers 7.12502
lthumb 16.3611 4.50879
rfemur 10.2036 10.9727 24.992
rtibia 12.5112
rfoot -25.556 9.09657
rtoes -8.42426
lfemur -20.9101 -3.98226 9.24078
ltibia 24.0586
lfoot -4.06962 2.25026
ltoes -15.846
2714
root -23.4455 16.3829 18.0605 530.232 306.607 -525.481
lowerback 13.7305 4.30845 -1.87486
upperback 6.75201 4.86704 -1.32891
thorax -0.611705 2.16944 -1.00887
lowerneck -20.7628 2.64883 3.77236
upperneck 34.0207 0.834659 1.13631
head 15.4939 0.629212 -0.121154
rclavicle 3.57812e-014 -1.11319e-014
rhumerus -34.8017 27.021 -95.5636
rradius 91.3808
rwrist -9.65958
rhand -17.6508 -26.4317
rfingers 7.12502
rthumb 8.60733 -56.2363
lclavicle 3.57812e-014 -1.11319e-014
lhumerus -53.0734 27.8492 37.9597
lradius 14.3255
lwrist -50.2846
lhand -9.69398 -24.6094
lfingers 7.12502
lthumb 16.2783 4.72732
rfemur 10.1656 11.0831 23.9291
rtibia 12.4143
rfoot -25.4619 9.13074
rtoes -7.92691
lfemur -21.6915 -3.7486 8.32311
ltibia 25.7036
lfoot -4.94088 2.43659
ltoes -15.7756
2715
root -23.5747 16.3911 18.0858 530.971 307.003 -525.838
lowerback 13.4045 4.27265 -2.48181
upperback 6.66159 4.76789 -1.38782
thorax -0.577652 2.11197 -0.701475
lowerneck -21.3467 2.55223 3.88076
upperneck 34.7229 0.831125 0.415218
head 15.9738 0.531361 -0.447967
rclavicle 1.27222e-014 3.49861e-014
rhumerus -34.8256 25.8166 -95.6459
rradius 90.1065
rwrist -8.80051
rhand -17.8859 -26.5129
rfingers 7.12502
rthumb 8.38042 -56.3267
lclavicle 1.27222e-014 3.49861e-014
lhumerus -52.476 28.0969 37.962
lradius 14.4025
lwrist -51.0777
lhand -10.01 -24.5672
lfingers 7.12502
lthumb 15.974 4.79416
rfemur 10.0635 11.1389 23.2937
rtibia 12.353
rfoot -25.3216 9.18753
rtoes -6.67728
lfemur -22.2961 -3.56431 7.81678
ltibia 26.9671
lfoot -5.84531 2.69555
ltoes -17.2581
2716
root -23.7045 16.4104 18.1108 531.542 307.394 -526.053
lowerback 13.1259 4.28926 -2.82589
upperback 6.59545 4.76462 -1.50026
thorax -0.51622 2.10705 -0.610843
lowerneck -21.2285 2.58323 3.51866
upperneck 34.4724 0.869644 0.877859
head 15.8169 0.567418 -0.178462
rclavicle -1.98785e-014 -3.49861e-014
rhumerus -34.8621 24.3462 -95.7481
rradius 88.7186
rwrist -7.9352
rhand -18.339 -26.7599
rfingers 7.12502
rthumb 7.94318 -56.5907
lclavicle -1.98785e-014 -3.49861e-014
lhumerus -51.1049 27.6088 38.909
lradius 14.5628
lwrist -50.8933
lhand -10.1829 -24.4252
lfingers 7.12502
lthumb 15.8075 4.94939
rfemur 10.0068 11.0727 22.8065
rtibia 11.9655
rfoot -24.8828 9.14397
rtoes -4.74974
lfemur -22.5959 -3.29572 7.35986
ltibia 27.8209
lfoot -6.68436 2.87107
ltoes -17.5779
2717
root -23.8307 16.4371 18.1347 532.036 307.756 -526.437
lowerback 13.1138 4.32162 -3.19131
upperback 6.5384 4.75754 -1.66612
thorax -0.584037 2.09726 -0.581058
lowerneck -21.4584 2.49568 3.18932
upperneck 34.7246 0.785854 1.00541
head 15.9882 0.503408 -0.0821958
rclavicle 2.94201e-014 1.11319e-014
rhumerus -34.9266 22.7604 -95.8861
rradius 86.9761
rwrist -6.9969
rhand -18.8579 -27.9645
rfingers 7.12502
rthumb 7.44231 -57.8136
lclavicle 2.94201e-014 1.11319e-014
lhumerus -49.6805 27.0637 39.9209
lradius 14.9056
lwrist -50.3644
lhand -10.2659 -24.376
lfingers 7.12502
lthumb 15.7276 5.00492
rfemur 10.1203 10.9497 22.2585
rtibia 11.8319
rfoot -24.4355 9.01845
rtoes -2.72976
lfemur -22.3819 -3.05992 6.76219
ltibia 28.184
lfoot -7.48439 2.93379
ltoes -16.8964
